<svg xmlns="http://www.w3.org/2000/svg" data-name="Layer 1" id="Layer_1" viewBox="0 0 272 272"><defs><style>.cls-1{fill:#ffeb3c;}.cls-2{fill:#fff176;}.cls-3{fill:#efefef;}.cls-4{fill:#e91d62;}.cls-5{fill:#f06292;}.cls-6{fill:#f3f4f2;}</style></defs><title/><circle class="cls-1" cx="195" cy="56" r="48"/><circle class="cls-2" cx="195" cy="56" r="8"/><path class="cls-2" d="M169.73,36.39l7.07,7.07A5,5,0,0,1,173.27,52h-10a5,5,0,0,1-4.79-6.45,37.61,37.61,0,0,1,3.35-8A5,5,0,0,1,169.73,36.39Z"/><path class="cls-2" d="M191,24.25v10a5,5,0,0,1-8.54,3.54l-7.07-7.07a5,5,0,0,1,1.13-7.93,37.61,37.61,0,0,1,8-3.35A5,5,0,0,1,191,24.25Z"/><path class="cls-2" d="M179.69,68.54l-8.87,8.87a5,5,0,0,1-7.77-.87,37.68,37.68,0,0,1-4.6-10.12,5,5,0,0,1,4.8-6.42h12.9A5,5,0,0,1,179.69,68.54Z"/><path class="cls-2" d="M191,80.62v7.13a5,5,0,0,1-6.36,4.82,37.66,37.66,0,0,1-5.92-2.23,5,5,0,0,1-1.43-8.08l5.17-5.17A5,5,0,0,1,191,80.62Z"/><path class="cls-2" d="M207.54,74.2l7.07,7.07a5,5,0,0,1-1.13,7.93,37.61,37.61,0,0,1-8,3.35A5,5,0,0,1,199,87.75v-10A5,5,0,0,1,207.54,74.2Z"/><path class="cls-2" d="M231.54,66.45a37.61,37.61,0,0,1-3.35,8,5,5,0,0,1-7.93,1.13l-7.07-7.07A5,5,0,0,1,216.73,60h10A5,5,0,0,1,231.54,66.45Z"/><path class="cls-2" d="M216.41,31.82l-8.87,8.87A5,5,0,0,1,199,37.16V24.26a5,5,0,0,1,6.42-4.8,37.68,37.68,0,0,1,10.12,4.6A5,5,0,0,1,216.41,31.82Z"/><path class="cls-2" d="M226.75,52h-7.13a5,5,0,0,1-3.54-8.54l5.17-5.17a5,5,0,0,1,8.08,1.43,37.66,37.66,0,0,1,2.23,5.92A5,5,0,0,1,226.75,52Z"/><rect class="cls-3" height="120" width="8" x="112" y="136"/><rect class="cls-3" height="8" rx="4" ry="4" width="80" x="76" y="256"/><path class="cls-3" d="M116,155h0c42.23,0,75.64-30.12,72.83-65.65l-2-24.69c-.16-2.06-2.19-3.66-4.63-3.66H49.75c-2.45,0-4.47,1.6-4.63,3.66l-2,24.69C40.36,124.88,73.77,155,116,155Z"/><path class="cls-4" d="M80.9,24l-3-6.53A2.55,2.55,0,0,0,75.54,16H33a4,4,0,0,0-4,4h0a4,4,0,0,0,4,4H69.52a4,4,0,0,1,3.62,2.31l42.2,90.51a4,4,0,0,0,5.31,1.93h0a4,4,0,0,0,1.93-5.32Z"/><path class="cls-5" d="M53.1,96c.63,10.26,5,20.19,12.64,28.46C77.8,137.51,96.12,145,116,145s38.2-7.49,50.26-20.54c7.65-8.27,12-18.21,12.64-28.46Z"/><path class="cls-6" d="M142.57,124.44l.1.19a3.9,3.9,0,0,0,5.56,1.4,55.15,55.15,0,0,0,25-41.79A3.9,3.9,0,0,0,169.43,80h-.22a3.92,3.92,0,0,0-3.9,3.64,47.15,47.15,0,0,1-21.36,35.64A3.92,3.92,0,0,0,142.57,124.44Z"/></svg>